<?xml version="1.0" encoding="UTF-8"?>
<svg id="Layer_1" data-name="Layer 1" xmlns="http://www.w3.org/2000/svg" viewBox="0 0 1034.54 791.79">
  <defs>
    <style>
      .cls-1 {
        fill: none;
      }

      .cls-1, .cls-2, .cls-3, .cls-4, .cls-5, .cls-6, .cls-7 {
        stroke-linecap: round;
      }

      .cls-1, .cls-2, .cls-4, .cls-5, .cls-6 {
        stroke: #086788;
      }

      .cls-1, .cls-2, .cls-6 {
        stroke-miterlimit: 10;
      }

      .cls-1, .cls-4, .cls-5 {
        stroke-width: 14px;
      }

      .cls-2 {
        stroke-width: 10px;
      }

      .cls-2, .cls-4, .cls-8 {
        fill: #086788;
      }

      .cls-3 {
        stroke: #07a0c3;
      }

      .cls-3, .cls-4, .cls-5, .cls-7 {
        stroke-linejoin: round;
      }

      .cls-3, .cls-5, .cls-6 {
        fill: #07a0c3;
      }

      .cls-3, .cls-6 {
        stroke-width: 30px;
      }

      .cls-9 {
        letter-spacing: -.01em;
      }

      .cls-10, .cls-7 {
        fill: #ffd0e5;
      }

      .cls-11 {
        letter-spacing: 0em;
      }

      .cls-8 {
        font-family: LondrinaSolid-Light, 'Londrina Solid';
        font-size: 165.58px;
        font-weight: 300;
      }

      .cls-12 {
        fill: #ff4969;
      }

      .cls-13 {
        letter-spacing: -.06em;
      }

      .cls-7 {
        font-family: LondrinaSolid-Black, 'Londrina Solid';
        font-size: 161.43px;
        font-weight: 800;
        stroke: #ff4969;
        stroke-width: 9px;
      }
    </style>
  </defs>
  <g>
    <path class="cls-3" d="m312.45,449.17s27.86,15.46,6.86,44.1c-10.78,14.7,9.8,42.14,27.44,36.26,0,0,87.22-37.24,94.08,64.68h199.91c-19.6-64.68,33.32-170.51,33.32-170.51,75.31-130.98,61.41-164.37,50.96-224.41-6.03-34.65-26.27-63.29-52.92-86.24-35.8-30.83-97.12-62.76-182.27-52.92-144.05,16.66-131.89,106.5-161.69,139.15-18.62,20.4,12.74,34.07,12.74,46.06,0,10.78-.98,14.7-14.7,27.44-30.01,27.87-49,55.86-49,55.86,0,0-20.09,18.13,5.39,28.91,25.48,10.78,66.15,28.91,27.93,54.39"/>
    <path class="cls-2" d="m544.2,585.55c-.02.61,5.75.6,5.88,0,17.25-79.93-49.84-240.58-140.82-283.18-15.81-7.41-32.35-11.25-49.29-10.48-12.57.57-48.26,41-48.02,44.95.12,1.92,9.62,5.55,11.76,6.99,11.23,7.57,37.58,11.99,35.43,30.91-.16,1.39,1.24,2.41,2.45,1.77,10.23-5.42,49.53-24,90.01-1.25,102.6,57.64,93.56,183.16,92.6,210.29Z"/>
    <path class="cls-4" d="m386.73,415.36c106.14-4.9,125.13,75.45,130.86,167.57h-47.87c9.06-77-7.99-161.62-84.35-167.27l1.36-.3Z"/>
    <path class="cls-1" d="m397.35,415.56c-9.99-.74-21-.13-33.09,2.03,0,0-34.37,10.43-3.3,22.27,9.78,3.73,13.72,16.66,11.76,22.54"/>
    <line class="cls-6" x1="515.77" y1="269.57" x2="520.69" y2="286.99"/>
    <g>
      <path class="cls-10" d="m595.17,250.32l-2.12,13.07c-23.76,120.55,92.03,93.79,107.95,2.04,5.02-61.22-27.55-149.21-98-155.78"/>
      <path class="cls-12" d="m589.39,248.73c-2.39,14.74-5.55,29.47-5.54,44.46,0,13.47,2.21,28.11,10,39.45,6.07,8.84,15.21,15.28,25.91,16.98,11.51,1.82,22.85-.73,33.28-5.71,11.31-5.39,21.3-13.8,29.27-23.41,9.63-11.62,16.76-25.06,21.16-39.49,1.16-3.79,2.11-7.64,2.87-11.53.85-4.35,1.04-8.76,1.13-13.18.18-8.47-.3-16.94-1.34-25.34-2.3-18.6-7.03-36.65-14.39-53.89s-16.65-31.94-29.24-44.65c-12.51-12.63-28.17-22.26-45.52-26.49-4.59-1.12-9.28-1.83-13.98-2.28-3.13-.3-6.14,2.97-6,6,.16,3.51,2.64,5.68,6,6,.57.05,1.14.11,1.71.18.29.03,2.1.27.9.1s.73.11,1.03.16c.61.09,1.21.19,1.81.3,2.08.37,4.16.81,6.21,1.34,4.02,1.02,7.91,2.39,11.76,3.94-1.95-.79-.29-.12.18.09s.97.44,1.46.66c.97.45,1.92.92,2.87,1.41,1.85.95,3.66,1.96,5.44,3.04s3.43,2.16,5.09,3.32c.79.55,1.57,1.12,2.35,1.7.23.17.46.35.7.52.74.55-.51-.4-.52-.41.45.36.92.72,1.37,1.08,6.5,5.23,12.31,11.27,17.46,17.82.18.23.37.47.55.71-1.08-1.37-.62-.81-.39-.5.33.44.66.87.99,1.31.66.88,1.3,1.77,1.94,2.67,1.25,1.77,2.45,3.57,3.61,5.39,2.29,3.6,4.42,7.31,6.4,11.09s3.87,7.94,5.65,11.99c-.02-.04-.61-1.46-.24-.58.12.29.24.57.36.86.2.48.39.96.58,1.44.42,1.06.84,2.11,1.24,3.18.77,2.03,1.5,4.08,2.2,6.13,2.81,8.29,5.03,16.78,6.67,25.38.4,2.1.77,4.2,1.1,6.31.17,1.1.34,2.2.49,3.3.03.2.05.4.08.6-.29-2.01-.11-.84-.06-.4.08.6.15,1.19.22,1.79.5,4.12.86,8.26,1.07,12.4s.29,8.23.2,12.35c-.04,1.95-.12,3.9-.23,5.85-.05.91-.14,1.82-.19,2.74-.06,1.11.29-1.61.07-.5-.04.18-.07.36-.1.55-.1.54-.2,1.09-.31,1.63-1.46,7.38-3.65,14.57-6.5,21.53-.4.98.63-1.47.21-.5-.07.16-.13.31-.2.47-.17.39-.34.77-.51,1.16-.37.84-.76,1.68-1.16,2.51-.76,1.6-1.57,3.19-2.41,4.75-1.62,3.01-3.38,5.93-5.29,8.77-.92,1.36-1.87,2.7-2.85,4.02-.23.31-.47.62-.7.92-.6.8.99-1.27.37-.48-.12.15-.24.3-.35.45-.52.66-1.05,1.31-1.58,1.96-2.02,2.43-4.16,4.77-6.41,6.99s-4.43,4.15-6.8,6.05c-.29.24-.59.51-.9.71-.09.05,1.38-1.05.72-.56-.17.12-.33.25-.5.38-.6.45-1.21.9-1.83,1.34-1.16.82-2.33,1.61-3.53,2.37-2.34,1.48-4.76,2.84-7.26,4.04-.6.29-1.2.57-1.81.84-.29.13-.57.25-.86.38-.72.32,1.04-.41.92-.39-.23.05-.47.2-.69.28-1.19.48-2.4.93-3.61,1.33-2.35.78-4.74,1.41-7.18,1.86-.62.11-1.24.21-1.86.31-1.18.18,1.79-.22.59-.08-.33.04-.67.08-1,.11-1.16.12-2.32.19-3.48.21s-2.28,0-3.41-.07c-.53-.03-1.07-.08-1.6-.13-.29-.03-.58-.07-.87-.1.6.07,1.75.25.57.07-2.22-.35-4.4-.91-6.5-1.68-.64-.24-2.47-1.1-.15-.03-.52-.24-1.04-.46-1.55-.72-.98-.48-1.93-1.02-2.86-1.6-.47-.29-.92-.6-1.37-.92-.24-.17-.47-.34-.7-.51-.91-.66,1.42,1.15.33.25-.88-.72-1.73-1.46-2.53-2.26s-1.62-1.68-2.36-2.58c-.18-.22-.36-.44-.53-.66-.42-.52,1.12,1.49.31.39-.38-.52-.75-1.04-1.11-1.57-1.49-2.23-2.67-4.6-3.78-7.03,1.06,2.32.03.04-.21-.59-.27-.7-.52-1.41-.75-2.12-.47-1.42-.88-2.86-1.25-4.31-.39-1.58-.73-3.17-1.01-4.77-.14-.82-.27-1.64-.39-2.47-.21-1.42.19,1.61.02.15-.06-.49-.12-.99-.17-1.48-.85-8.02-.61-16.14.23-24.14.11-1.08.24-2.16.37-3.24.03-.27.07-.55.11-.82.1-.83-.23,1.64-.06.43.09-.67.19-1.35.29-2.02.37-2.44.78-4.88,1.24-7.31.49-2.57.88-5.15,1.3-7.72.37-2.26.73-4.52,1.1-6.78.27-1.64.27-3.13-.6-4.62-.73-1.24-2.16-2.43-3.59-2.76-2.89-.66-6.84.88-7.38,4.19h0Z"/>
    </g>
    <g>
      <path class="cls-10" d="m526.57,92.96c85.92-18.46,100.01,54.25,70.9,71.39-1.47.87-3.76,1.49-6.56,1.87h0c8.99,4.93,7.54,20.08,4.84,24.06-2.85,4.21-9.25,5.08-14.31,5.58l.85.44c10.23,2.89,18.39,11.65,21.33,21.86,2.95,10.22.9,21.58-4.73,30.61-1.51,2.43-3.33,4.75-5.77,6.25-2.93,1.79-6.5,2.22-9.94,2.19-8.85-.08-17.44-2.89-25.67-6.13-11.96-4.72-23.53-10.42-34.56-17.04l-26-67.98"/>
      <path class="cls-12" d="m528.16,98.74c2.11-.45,4.22-.86,6.35-1.22.96-.16,1.93-.32,2.89-.46.47-.07.95-.13,1.42-.2-.08.01-1.55.2-.54.07.29-.04.58-.07.88-.11,3.71-.45,7.44-.74,11.18-.82,3.34-.07,6.69.01,10.02.29.76.06,1.52.14,2.28.22.37.04.75.09,1.12.13.42.05,1.14.18-.76-.1.23.03.46.06.69.1,1.47.21,2.94.47,4.39.77,2.77.58,5.52,1.31,8.19,2.24,1.24.43,2.46.92,3.68,1.4-2.21-.88-.07-.01.48.24.62.29,1.24.59,1.85.9,2.15,1.09,4.22,2.32,6.19,3.7.46.32.92.65,1.37.99.11.08.22.17.33.25.66.49-.81-.6-.72-.56.29.15.56.44.81.64.84.69,1.66,1.4,2.45,2.14,1.6,1.5,3.1,3.11,4.48,4.82.17.21.84,1.08.07.07s-.11-.14.05.08c.32.43.63.87.94,1.31.6.87,1.17,1.77,1.71,2.68s1,1.76,1.45,2.67c.22.43.43.87.63,1.31.1.22.2.44.3.66.05.11.1.22.14.33.37.82-.36-.85-.36-.85.19.95.76,1.92,1.07,2.84s.59,1.85.83,2.78.46,1.86.64,2.79c.09.45.17.9.24,1.36.04.23.07.45.1.68.13.82-.24-1.96-.09-.67.21,1.86.33,3.73.3,5.61-.01.9-.06,1.81-.14,2.71-.04.43-.08.86-.13,1.29-.13,1.19.18-1.22.11-.79-.04.24-.07.48-.11.72-.28,1.75-.68,3.47-1.22,5.16-.26.81-.56,1.61-.87,2.41-.39,1,.64-1.46.31-.72-.08.19-.16.37-.25.56-.19.42-.39.83-.6,1.23-.76,1.48-1.65,2.86-2.62,4.2-.62.86.9-1.11.48-.63-.13.15-.25.31-.37.46-.27.32-.54.64-.83.95-.55.6-1.12,1.18-1.73,1.72-.29.26-.59.52-.9.77-.15.13-.31.24-.46.37,1.76-1.49.97-.74.5-.4-.68.49-1.38.97-2.12,1.38-.18.1-.36.18-.54.28-.63.37,1.25-.45.52-.22-.47.15-.92.31-1.4.44-1.18.32-2.38.53-3.59.7-1.38.19-2.92,1.62-3.59,2.76-.75,1.29-1.07,3.18-.6,4.62s1.37,2.85,2.76,3.59c1.53.81,2.93.84,4.62.6h0c-1.54-.2-3.08-.4-4.62-.61.29.17.57.34.86.52.12.07.23.18.35.24.06.03-1.07-.91-.66-.51.49.49.99.94,1.46,1.45.64.7-.78-1.15-.27-.35.17.27.36.53.52.8s.32.56.47.84c.12.24.6,1.33.16.28s.01.07.1.32c.11.31.21.62.3.93.18.63.33,1.26.45,1.91.04.23.23.76.16.97-.04.13-.17-1.53-.12-.9,0,.14.03.28.04.42.07.69.11,1.38.12,2.07.02,1.19-.05,2.38-.17,3.56-.1.97.27-1.63.06-.49-.05.27-.09.55-.15.82-.1.51-.22,1.01-.36,1.51-.12.42-.27.82-.4,1.23-.3.95.7-1.4.3-.7-.1.18-.18.38-.29.56-.07.12-.15.24-.23.36-.46.8.97-.95,0-.07-.19.17-1.06.88-.25.29.86-.62-.39.24-.62.38-.39.23-.8.42-1.2.63-.55.29.66-.27.64-.27-.26.02-.58.22-.82.3-.84.29-1.71.52-2.57.71-.94.21-1.88.33-2.83.5-.07.01,1.39-.17.72-.1-.23.02-.46.06-.69.08-.51.06-1.01.11-1.52.16-2.56.25-5.16,1.68-5.79,4.4-.57,2.5.34,5.53,2.76,6.78.86.44,1.71.85,2.64,1.14.47.15.93.29,1.39.45.23.08.46.17.68.25,1.23.43-1.27-.6-.09-.05,1.82.85,3.57,1.82,5.21,2.99.2.14.39.29.59.43.63.46-.94-.77-.35-.26.37.32.75.62,1.12.94.78.69,1.52,1.41,2.23,2.17.33.36.66.72.98,1.1.16.19.31.38.47.56.82.96-.64-.88-.15-.2.61.84,1.21,1.69,1.76,2.58.51.83.99,1.69,1.43,2.57.22.44.42.88.63,1.33.43.92-.14-.31-.17-.42.09.34.27.69.4,1.03.75,2.06,1.22,4.17,1.61,6.33.15.82-.13-1.2-.05-.37.03.27.06.55.09.82.05.55.09,1.1.12,1.65.06,1.17.06,2.34,0,3.51-.03.55-.06,1.1-.11,1.65-.03.27-.06.55-.08.82-.1,1.08.01-.22.06-.36-.33,1.18-.42,2.46-.71,3.66-.26,1.08-.57,2.14-.92,3.19-.17.53-.36,1.05-.56,1.56-.1.26-.2.52-.3.77-.41,1.05.36-.77.04-.1-.99,2.06-2.01,4.08-3.29,5.98-.15.23-.32.45-.47.67-.75,1.13.64-.73.07-.07-.36.41-.7.83-1.08,1.22s-.79.74-1.19,1.11c-.59.54.94-.6.24-.2-.3.17-.58.38-.88.55-.02.01-.66.41-.76.39.34.07,1.03-.37.25-.11-.54.18-1.08.36-1.63.49-.48.12-1.2.39-1.69.33,1.05.14.83-.1.31-.06-.43.03-.86.07-1.3.09-1.19.05-2.39.03-3.59-.03-.62-.03-1.23-.08-1.85-.13-.31-.03-.62-.06-.92-.09-.19-.02-1.5-.22-.58-.07.85.14-.14-.03-.35-.06-.31-.05-.61-.1-.91-.15-.61-.11-1.22-.23-1.82-.35-1.29-.27-2.57-.58-3.84-.93-5.03-1.36-9.91-3.23-14.73-5.2-.64-.26-1.29-.52-1.93-.8,1.2.53.41.17.15.06-.43-.18-.85-.37-1.28-.55-1.35-.59-2.69-1.18-4.03-1.8-2.61-1.19-5.19-2.43-7.75-3.71-5.26-2.64-10.42-5.49-15.47-8.51l2.76,3.59c-2.94-7.69-5.88-15.39-8.83-23.08-4.65-12.17-9.31-24.33-13.96-36.5-1.07-2.8-2.14-5.6-3.21-8.4-.57-1.5-1.33-2.75-2.76-3.59-1.29-.75-3.18-1.07-4.62-.6-2.85.92-5.39,4.24-4.19,7.38,2.58,6.74,5.16,13.49,7.74,20.23,4.44,11.6,8.87,23.21,13.31,34.81l4.24,11.09c.23.61.46,1.22.7,1.83.2.5-.32-.14.61,1.45.79,1.36,2.06,2.1,3.35,2.87s2.67,1.57,4.02,2.33c2.7,1.53,5.42,3,8.18,4.42,5.7,2.93,11.52,5.6,17.43,8.08s11.39,4.65,17.32,6.24,12.71,2.77,18.99,2.01c3.52-.43,7-1.27,9.93-3.37s4.99-4.57,6.86-7.48c6.48-10.11,8.83-23.12,5.77-34.78-2.71-10.32-10.04-19.81-19.71-24.49-1.39-.67-2.83-1.28-4.29-1.8-.29-.1-.58-.2-.87-.29-.65-.21-1-.59.49.31-.25-.15-.53-.27-.79-.41l-3.03,11.18c4.65-.46,9.2-1.09,13.44-3.17,3.76-1.84,6.33-5.03,7.65-8.93,2.09-6.18,1.72-13.72-.8-19.7-.9-2.14-2.06-4.01-3.63-5.75-.84-.93-1.84-1.7-2.84-2.43-.35-.25-.69-.49-1.06-.71-1.67-.96-3.03-1-4.88-.75l3.19,11.57c3.58-.5,6.98-1.61,9.93-3.74,1.75-1.27,3.44-2.63,4.92-4.22,3.04-3.27,5.23-6.99,6.93-11.09,3.25-7.86,3.57-16.65,2.04-24.93-1.69-9.15-6.27-17.69-12.52-24.53-7.42-8.12-17.47-13.61-28-16.54-14.47-4.03-29.8-3.49-44.48-1-2.12.36-4.24.77-6.35,1.22-3.07.66-5.15,4.42-4.19,7.38,1.05,3.24,4.09,4.89,7.38,4.19h0Z"/>
    </g>
    <g>
      <path class="cls-12" d="m635.92,173.78c.18.06,1.21.48.2.05-.9-.38-.2-.09.02.03.42.22.85.43,1.26.68.36.22.7.46,1.05.69.94.63-.89-.81-.35-.27.22.22.48.41.71.62.65.6,1.17,1.35,1.82,1.95-.97-.89-.64-.86-.36-.46.15.22.31.43.46.65.3.44.58.9.85,1.36.46.8.78,1.7,1.25,2.48-.79-1.28-.35-.86-.16-.36.1.26.2.52.3.78.19.53.37,1.06.53,1.6.61,1.97.97,3.98,1.32,6.01-.34-1.91-.05-.39,0,.11.06.56.11,1.13.15,1.7.07,1.01.11,2.01.12,3.02.01,1.26-.01,2.52-.11,3.78-.02.29-.05.57-.08.86-.11,1.19.07-.26.04-.32.17.36-.35,1.7-.46,2.09-.1.34-.23.67-.33,1.01-.22.84.68-1.28.03-.05-.25.47-.48.94-.74,1.4-.3.52-.61,1.02-.95,1.51-.15.22-.3.44-.46.65-.12.16-.23.32-.35.48.5-.64.6-.78.32-.43-.75.85-1.48,1.71-2.29,2.51-.43.42-.87.83-1.32,1.23-.4.36-1.17,1.26-1.7,1.42.09-.03,1.14-.84.26-.2-.22.16-.43.32-.65.47-.49.35-.98.69-1.48,1.02-1.02.68-1.99,1.35-2.95,2.12s-1.74,1.61-2.48,2.54c-2.28,2.85-3.88,5.9-5.14,9.32-2.23,6.02-2.97,13.09-1.34,19.36.87,3.36,2.66,6.8,5.41,8.99,3.4,2.71,7.54,3.98,11.9,3.53,1.63-.17,3.04-.56,4.24-1.76,1.04-1.04,1.82-2.75,1.76-4.24-.13-2.97-2.66-6.34-6-6-.73.08-1.46.11-2.19.08-.3-.01-.6-.07-.9-.07,2.07.02,1.01.15.34-.01-.33-.08-.64-.19-.97-.29-.82-.25,1.59.79.53.23-.22-.12-.45-.23-.67-.36-.13-.08-.26-.17-.4-.25-.87-.52,1.05.92.62.49-.38-.37-.77-.71-1.13-1.1-.82-.88.86,1.31.3.4-.17-.27-.35-.53-.51-.81-.15-.25-.27-.52-.41-.78-.56-1.07.49,1.33.21.52-.21-.62-.43-1.22-.59-1.86-.15-.59-.25-1.19-.36-1.78-.16-.85.21,1.88.07.39-.04-.37-.06-.75-.08-1.12-.07-1.44,0-2.87.15-4.3.13-1.34-.2,1.17-.06.41.06-.35.11-.71.18-1.06.14-.75.3-1.49.49-2.23.35-1.39.83-2.72,1.33-4.06.31-.83-.7,1.54-.15.37.15-.31.29-.62.44-.93.32-.63.66-1.26,1.03-1.86.32-.52.66-1.02,1.02-1.52.66-.92-1.07,1.27-.23.32.22-.25.44-.51.67-.75.4-.42.84-.8,1.28-1.19.63-.55-1.46.99-.47.38.44-.27.87-.57,1.3-.85,2.31-1.55,4.54-3.26,6.57-5.16,4.01-3.76,7.6-8.7,8.73-14.17s.82-10.84.06-16.2c-.69-4.85-2.18-9.75-4.73-13.96-2.96-4.89-7.22-8.46-12.59-10.4-2.96-1.07-6.7,1.2-7.38,4.19-.77,3.38,1.03,6.23,4.19,7.38h0Z"/>
      <path class="cls-12" d="m638.89,223.2c1.58-.62,3.21-1.14,4.88-1.46.61-.12,2.17-.2-.27,0,.37-.03.73-.08,1.1-.11.7-.05,1.41-.06,2.11-.02.34.02.67.05,1.01.08.88.08-1.8-.3-.94-.12.16.03.32.05.48.08.63.12,1.24.28,1.85.48.3.1.58.23.88.32-2.18-.71-1.03-.45-.45-.16s1.08.58,1.59.93c.26.17.49.36.75.54-1.92-1.28-.84-.66-.38-.26s.92.85,1.34,1.31c.21.23.42.48.62.72.92,1.07-.91-1.28-.25-.33.38.54.75,1.07,1.09,1.63s.67,1.16.98,1.76c.15.31.3.62.44.93.05.1.09.21.14.32.49,1.08-.58-1.45-.26-.63.52,1.34.99,2.69,1.36,4.08s.69,2.91.92,4.39c.03.19.05.38.08.56.14.92-.22-1.77-.11-.84.04.38.09.76.13,1.14.08.77.14,1.54.18,2.31.17,3.11.02,6.21-.34,9.3-.11.93.25-1.76.11-.83-.03.19-.06.38-.08.57-.06.38-.12.75-.19,1.13-.13.74-.28,1.48-.45,2.22-.33,1.43-.72,2.84-1.19,4.22-.23.67-.48,1.32-.74,1.98-.27.69.78-1.78.2-.48-.16.36-.33.72-.5,1.07-.57,1.16-1.23,2.29-1.97,3.35-.09.13-.18.25-.27.38-.64.91,1.01-1.24.47-.6-.21.25-.41.51-.63.75-.44.49-.9.96-1.39,1.4s-1.64,1.12.34-.21c-.23.16-.45.33-.68.49-.54.36-1.1.65-1.68.94-.95.47,1.82-.65.49-.22-.28.09-.56.19-.85.26-.31.08-.63.14-.94.21-.52.11-1.26.01,1.04-.13-.19.01-.37.04-.56.06-.63.05-1.25.03-1.88,0-1.41-.08,1.79.34.39.06-.36-.07-.72-.15-1.08-.24-3.04-.77-6.65.99-7.38,4.19s.94,6.56,4.19,7.38c6.77,1.72,13.71-.38,18.39-5.58,4.49-5,7.05-11.55,8.24-18.1,1.34-7.37,1.38-14.88-.17-22.22-1.33-6.33-4.22-13.09-9.28-17.34-2.71-2.28-5.85-4.09-9.37-4.75-4.04-.76-8.11-.51-12.06.65-.88.26-1.75.57-2.61.9-1.5.59-2.74,1.31-3.59,2.76-.75,1.29-1.07,3.18-.6,4.62.91,2.82,4.25,5.42,7.38,4.19h0Z"/>
      <path class="cls-12" d="m647.19,267.11c-8.38-4.86-19.3-.41-23.7,7.78-5.01,9.3-2,20.25,4.6,27.86,3.21,3.71,7.38,6.64,11.63,9.05,2.73,1.55,6.68.74,8.21-2.15s.76-6.56-2.15-8.21c-1.52-.86-3.01-1.78-4.44-2.79-.31-.22-.63-.54-.98-.71,0,0,.92.74.42.32-.15-.13-.31-.25-.47-.38-.67-.55-1.32-1.13-1.95-1.73-.58-.55-1.13-1.13-1.66-1.73-.26-.3-.51-.61-.77-.92-.42-.5.33.42.33.43-.08-.22-.33-.46-.46-.65-.49-.71-.95-1.45-1.36-2.22-.19-.36-.35-.73-.53-1.08-.3-.58.21.48.21.5-.02-.23-.21-.54-.28-.76-.27-.76-.49-1.55-.66-2.34-.08-.38-.09-.83-.22-1.19,0,0,.11,1.26.09.6,0-.27-.05-.53-.06-.8-.04-.78.22-1.85.06-2.59,0,0-.22,1.27-.08.61.04-.19.07-.39.11-.58.09-.45.21-.9.34-1.34.07-.23.54-1.42.17-.59s.18-.34.29-.54c.18-.33.36-.65.57-.96.71-1.09-.65.7-.02-.02.49-.56,1-1.1,1.57-1.58.13-.11.27-.21.4-.33.02-.02-1.06.74-.53.43.34-.2.66-.44,1.01-.64s.7-.36,1.05-.54c.56-.29-.7.28-.66.28.21-.04.43-.16.63-.22.37-.12.74-.2,1.12-.3,1.25-.32-1.07.01-.14,0,.43,0,.86,0,1.29-.01.21,0,.83.1-.16-.04s-.22-.03,0,.03c.28.08.82.34,1.09.32,0,0-1.19-.58-.67-.28.24.14.5.26.74.4,2.72,1.58,6.69.72,8.21-2.15s.75-6.53-2.15-8.21h0Z"/>
      <path class="cls-12" d="m650.74,268.28c-1.67,3.87-3.74,7.63-3.89,11.94-.18,5.21,3.05,9.67,6.78,12.97,1.2,1.06,2.61,1.76,4.24,1.76,1.47,0,3.23-.65,4.24-1.76,2.09-2.27,2.51-6.26,0-8.49-1.06-.94-2.06-1.93-2.94-3.04l.94,1.21c-.61-.8-1.13-1.63-1.52-2.55l.6,1.43c-.24-.6-.41-1.22-.5-1.86l.21,1.6c-.09-.73-.08-1.45.02-2.18l-.21,1.6c.22-1.44.73-2.81,1.29-4.15l-.6,1.43c.55-1.29,1.14-2.56,1.69-3.85.66-1.54,1.07-2.93.6-4.62-.38-1.39-1.46-2.9-2.76-3.59-1.39-.74-3.08-1.1-4.62-.6-1.38.45-2.98,1.36-3.59,2.76h0Z"/>
    </g>
    <g>
      <g>
        <path class="cls-10" d="m467.82,110.13c.2-1.67.7-5.04,2.01-7.86,7.55-16.22,31.36-17.4,37.21-17.87,4.39-.35,9,.24,12.67,2.68,2.94,1.96,4.62,4.05,5.91,7.12,5.47,12.97,6,27.96,1.46,41.28-4.92,14.44-15.63,27.76-14.2,42.95,1.28,13.58,12.22,24.97,12.81,38.6.67,15.42-13.13,28.81-28.31,31.61-15.18,2.8-30.8-2.94-43.71-11.4-4.46-2.92-8.74-6.23-12.57-9.96l.05.05c3.56,5.84-1.51,16.68-7.28,20.61-6.16,4.19-15.05,5.56-21.97,2.79-9.8-3.92-13.72-7.84-18.62-11.76l-.17-.31c-15.21-11.44-21.58-31.99-19.74-50.93s10.79-36.49,21.41-52.28c9.22-13.71,20.64-27.07,36.24-32.53,12.37-4.33,27.76-1.78,36.68,7.1"/>
        <path class="cls-12" d="m473.82,110.13c.13-1.04-.26,1.68-.07.53.03-.21.06-.42.1-.63.1-.6.21-1.2.35-1.8.15-.67.32-1.33.52-1.98.08-.27.17-.54.26-.81.09-.27.19-.53.3-.8l-.27.65c.25-.14.53-1.07.69-1.37.24-.44.5-.87.77-1.3.24-.38.5-.74.76-1.1.28-.4.83-.83-.31.39.2-.21.37-.46.56-.68.63-.73,1.31-1.43,2.02-2.09.32-.29.65-.58.98-.86.18-.15.38-.3.56-.45-1.39,1.22-.66.51-.3.24,1.55-1.13,3.21-2.1,4.92-2.94.43-.21.86-.41,1.29-.61,1.34-.6-1.18.45,0,0,.92-.36,1.84-.71,2.78-1.02,1.72-.57,3.47-1.05,5.24-1.46,1.62-.37,3.26-.68,4.91-.94.34-.05.68-.1,1.03-.15,1.18-.17-1.71.21-.39.05.74-.09,1.48-.18,2.22-.25,2.85-.29,5.78-.61,8.64-.37.5.04,1.23.35-.16-.05.25.07.55.09.81.14.67.13,1.34.29,1.99.49.33.1.64.23.97.33.83.26-1.32-.67-.12-.05.67.35,1.32.7,1.95,1.13.08.06.82.54.8.57-.06.12-1-.86-.34-.23.43.41.87.8,1.28,1.23.13.14.78,1.04.2.19s.05.09.14.23c.36.54.68,1.1.97,1.68.04.09.43.81.39.84.01,0-.47-1.19-.12-.27.26.68.53,1.36.78,2.06.49,1.38.94,2.78,1.32,4.19s.72,2.84,1,4.28c.14.72.27,1.44.38,2.17.04.28.06.6.13.87-.4-1.51-.04-.27,0,.15.32,2.91.42,5.85.31,8.78-.06,1.46-.17,2.93-.33,4.38-.03.28-.1.59-.11.87.03-1.46.06-.5,0-.07-.12.8-.26,1.59-.42,2.38-.57,2.85-1.35,5.64-2.34,8.37-.23.64-.48,1.28-.73,1.92-.1.26-.2.51-.31.76-.14.35-.47,1.62-.03.09-.37,1.29-1.14,2.58-1.7,3.79-2.5,5.36-5.19,10.63-7.43,16.11s-3.68,10.91-3.91,16.68,1.05,11.13,3.1,16.28,4.61,10.15,6.88,15.24c.57,1.27-.51-1.28,0,0,.1.24.2.48.29.72.24.6.47,1.21.69,1.82.43,1.21.83,2.44,1.15,3.68.16.62.31,1.24.44,1.87.09.43.32,2.61.16.68.1,1.25.24,2.48.22,3.73,0,.59-.04,1.17-.09,1.75-.02.29-.06.58-.09.87-.08.84.27-1.61.04-.39-.21,1.14-.46,2.26-.8,3.37-.17.55-.36,1.1-.56,1.64-.07.19-.2.44-.25.64.36-1.52.28-.66.05-.16-.49,1.05-1.04,2.08-1.65,3.07-.31.5-.63.99-.96,1.47-.13.19-.27.38-.41.57-.35.48-1.01.83.09-.09-.86.73-1.55,1.84-2.34,2.66s-1.62,1.58-2.48,2.32c-.23.19-.46.38-.69.57-.76.64.27-.22.37-.27-.61.34-1.17.87-1.75,1.26-2.02,1.37-4.2,2.28-6.31,3.45,1.59-.88-.07,0-.57.19s-1.02.35-1.53.51c-1.19.37-2.41.68-3.64.92-.61.12-1.23.21-1.84.31-.92.15,1.53-.16.1-.02-.28.03-.57.06-.85.09-1.56.14-3.13.2-4.7.18-1.28-.02-2.56-.08-3.84-.2-.43-.04-.85-.09-1.28-.13s-.97.09.32.05c-.79.03-1.77-.28-2.54-.43-2.76-.53-5.48-1.27-8.14-2.17-1.31-.44-2.59-.94-3.87-1.45s.87.39.02.01c-.33-.15-.67-.29-1-.44-.73-.33-1.46-.67-2.18-1.02-5.26-2.57-10.2-5.71-14.9-9.2-1.25-.93.97.8-.24-.19-.24-.19-.48-.38-.72-.57-.59-.48-1.18-.97-1.76-1.47-1.16-1-2.29-2.03-3.38-3.09-2.26-2.18-6.27-2.41-8.49,0s-2.41,6.15,0,8.49c-.84-.81-.96-1.25-.61-.68.45.73-.26-.6-.27-.67.04.35.24.73.32,1.08.35,1.53-.02-1.29.01,0,.01.46.03.91.01,1.37,0,.21-.03.41-.04.62-.04.95.08-.59.1-.65-.13.4-.15.87-.25,1.28-.23.99-.56,1.94-.9,2.89s.16-.4.21-.48c-.11.19-.19.42-.29.63-.2.41-.41.82-.63,1.23-.5.9-1.06,1.75-1.65,2.59-.55.8.26-.36.33-.42-.15.12-.29.35-.42.51-.28.33-.57.64-.86.95s-.59.58-.9.86c-.14.12-.33.25-.46.39.98-1.07.8-.6.29-.24-.83.57-1.7,1.07-2.6,1.52-.23.11-.46.22-.69.33-.91.46.24-.11.38-.15-.61.17-1.21.46-1.81.66-.99.32-1.99.58-3.01.78-.26.05-.51.09-.77.14-1.03.2.3-.05.44-.05-.64,0-1.3.13-1.94.16-1.03.04-2.06.03-3.08-.06-.13-.01-.6-.12-.76-.08.75-.19,1.15.18.46.05-.62-.12-1.24-.24-1.85-.41-1.01-.27-2.1-.59-3.03-1.07.17.09,1.15.5.14.05-.27-.12-.55-.24-.82-.37-.65-.3-1.29-.6-1.92-.92-1.86-.93-3.67-1.97-5.4-3.12-.71-.47-1.4-.96-2.09-1.47-.38-.28-1.5-1.2,0,.02-.38-.31-.77-.61-1.16-.92-.6-.49-1.2-.98-1.8-1.47-.3-.25-.6-.49-.89-.73s-1.29-1.29-.57-.26c.64.92.35.45.21.25-.68-.93-1.21-1.41-2.15-2.15.09.07,1.12.89.34.26-.19-.16-.38-.31-.57-.46-.81-.66-1.59-1.35-2.34-2.07-1.5-1.43-2.91-2.96-4.2-4.57-.91-1.14.69.94-.18-.23-.33-.44-.65-.89-.96-1.34-.59-.85-1.15-1.73-1.69-2.61-1.07-1.78-2.04-3.63-2.9-5.53-.1-.22-.2-.45-.3-.67-.33-.72.47,1.14.17.41-.18-.46-.37-.91-.55-1.37-.4-1.04-.77-2.09-1.11-3.15-.64-2.01-1.18-4.06-1.61-6.12-.2-.98-.39-1.96-.55-2.94-.03-.21-.27-1.96-.14-.87.12.96.02.11-.01-.13-.04-.31-.07-.62-.11-.93-.45-4.21-.49-8.46-.13-12.67.05-.54.1-1.07.16-1.61.03-.29.07-.58.1-.86.15-1.44-.15,1.01-.02.09.18-1.22.37-2.43.6-3.64.45-2.41,1.02-4.8,1.67-7.17s1.42-4.71,2.25-7.02c.4-1.09.81-2.17,1.24-3.25.22-.54.42-1.08.66-1.61-.67,1.48.26-.58.43-.97,4.01-9,9.1-17.5,14.68-25.6,1.28-1.87,2.6-3.71,3.97-5.52.26-.35,1.15-1.74.28-.38.28-.44.67-.85.99-1.26.75-.94,1.52-1.87,2.3-2.79,2.88-3.38,5.98-6.59,9.36-9.48.45-.38.9-.76,1.36-1.14.2-.17.41-.33.61-.49.52-.41.07-.39-.28.22.2-.35.93-.7,1.26-.94.48-.34.96-.68,1.44-1.01,1.83-1.24,3.74-2.38,5.71-3.39.93-.48,1.88-.91,2.84-1.34.8-.36-1.41.54-.16.08.25-.09.49-.19.74-.29.54-.21,1.09-.4,1.64-.58,2-.66,4.04-1.1,6.11-1.45.79-.13-1.29.15-.49.06.25-.03.49-.06.74-.08.5-.05.99-.09,1.49-.12,1.12-.07,2.24-.09,3.36-.07,1,.02,1.99.08,2.98.18.25.02.49.06.74.08.8.08-1.28-.2-.49-.07.55.09,1.1.17,1.65.28,2.05.39,4.07.95,6.03,1.68.23.09.45.18.68.26,1.18.44-1.02-.47-.26-.11.44.2.88.4,1.31.61.91.45,1.8.94,2.67,1.48.4.25.8.51,1.19.78.2.13.39.28.58.41,1.02.7-.86-.71-.23-.19.78.64,1.53,1.29,2.25,2,2.24,2.2,6.28,2.4,8.49,0s2.39-6.14,0-8.49c-10.25-10.06-26.23-13.05-39.88-9.45s-25.43,13.83-34.23,24.86c-9.61,12.04-17.81,25.37-23.69,39.63s-8.35,28.35-6.38,42.98c1.82,13.52,7.56,26.89,17.71,36.27,1.46,1.35,3.02,2.57,4.61,3.77l-2.15-2.15c1.06,1.91,3.25,3.29,4.93,4.65,2.01,1.62,4.06,3.21,6.23,4.61,5.27,3.41,11.27,6.23,17.53,7.01s12.55-.63,18.01-3.49c4.86-2.54,8.72-6.86,11.01-11.83,1.45-3.14,2.42-6.25,2.65-9.72.22-3.23-.54-7.54-2.96-9.89l-8.49,8.49c9.42,9.12,21.09,16.39,33.53,20.58s25.38,4.61,37.21-.43c10.23-4.37,18.73-12.9,22.42-23.45,1.96-5.6,2.05-11.6.87-17.38s-3.71-10.97-6.17-16.16c-.59-1.25-1.19-2.5-1.77-3.75-.28-.6-.55-1.19-.82-1.79-.11-.24-.21-.48-.32-.72-.1-.24-.21-.48-.31-.72.32.77.4.95.23.53-1-2.53-1.92-5.08-2.5-7.75-.14-.63-.24-1.27-.35-1.9-.16-.87.14,1.58.04.25-.03-.33-.07-.66-.09-1-.1-1.4-.1-2.81-.01-4.21.03-.4.06-.79.1-1.19.02-.19,0-1.41.04-.38s.03-.16.07-.38c.06-.33.12-.65.18-.98.27-1.37.61-2.72,1.01-4.06s.87-2.69,1.37-4.01c.24-.63.49-1.27.75-1.89.17-.41.31-1.26-.05.11.1-.38.33-.77.49-1.13,1.18-2.66,2.45-5.27,3.72-7.89,2.71-5.59,5.43-11.26,7.16-17.25,3.61-12.5,3.31-26.38-.99-38.67-1.02-2.92-2.12-5.93-3.99-8.42-2.04-2.72-4.64-5.1-7.73-6.58-4.94-2.36-10.14-2.79-15.52-2.36-16.19,1.28-35.17,6.19-41.72,22.93-1.09,2.79-1.52,5.72-1.89,8.68-.18,1.42.8,3.28,1.76,4.24,1.04,1.04,2.75,1.82,4.24,1.76s3.16-.58,4.24-1.76c1.15-1.25,1.55-2.57,1.76-4.24h0Z"/>
      </g>
      <path class="cls-12" d="m445.4,223.48c-1.85-1.81-3.57-3.72-5.21-5.71-.24-.3-.46-.85.15.2-.13-.23-.35-.46-.52-.68-.38-.52-.76-1.04-1.12-1.57-.73-1.06-1.42-2.14-2.06-3.25-.61-1.05-1.19-2.12-1.72-3.21-.28-.58-.55-1.18-.81-1.77-.35-.77.39,1.01.1.22-.13-.34-.27-.68-.4-1.01-.91-2.42-1.63-4.92-2.17-7.46-.25-1.19-.45-2.4-.64-3.6-.15-.92.17,1.53.02.1-.03-.29-.07-.57-.1-.86-.08-.72-.14-1.43-.19-2.15-.18-2.53-.22-5.08-.14-7.61s.27-5.14.55-7.7c.07-.66.15-1.33.23-1.99.03-.22.16-1.18.04-.31s.02-.09.05-.31c.2-1.4.43-2.8.67-4.19,1.01-5.86,2.34-11.65,3.71-17.44.72-3.05-.95-6.64-4.19-7.38s-6.61.92-7.38,4.19c-5.16,21.83-10.02,45.97,1.08,66.85,2.98,5.61,7.05,10.68,11.58,15.12,2.24,2.2,6.28,2.4,8.49,0s2.39-6.14,0-8.49h0Z"/>
      <path class="cls-12" d="m464.08,114.46c.58.59,1.12,1.2,1.66,1.82.94,1.06-.72-1.09.07.09.23.34.48.68.7,1.02.38.58.73,1.18,1.06,1.8.2.37.37.76.56,1.13.27.6.24.51-.1-.26.11.28.22.56.32.84.56,1.55.98,3.16,1.27,4.78.06.32.43,1.78.05.19.1.43.1.91.14,1.35.09,1.05.14,2.11.15,3.17.02,1.66-.05,3.31-.18,4.96-.04.45-.08.9-.13,1.34-.04.34-.06,1.81,0,.19-.03.86-.29,1.81-.46,2.65-.36,1.75-.84,3.49-1.45,5.17-.15.41-.28.86-.48,1.25.08-.16.55-1.18.07-.2s-.92,1.85-1.45,2.75c-1.8,3.05-4.02,5.83-5.94,8.8s-3.53,6.38-4.55,9.85c-2.11,7.16-1.85,14.75-.43,22.01,1.52,7.79,4.63,15.27,8.23,22.32,1.43,2.8,5.59,3.84,8.21,2.15,2.86-1.84,3.68-5.21,2.15-8.21-.77-1.52-1.52-3.05-2.22-4.6-.18-.39-.35-.78-.52-1.18l-.17-.39c-.26-.61-.23-.53.1.24-.16-.8-.67-1.65-.96-2.41-1.22-3.21-2.25-6.51-2.99-9.87-.18-.83-.34-1.66-.49-2.5-.06-.33-.26-.92-.2-1.25l.1.76c-.04-.28-.07-.55-.1-.83-.18-1.65-.28-3.31-.28-4.97,0-1.51.21-2.99.28-4.5-.08,1.69-.04.39.03-.02s.15-.8.23-1.2c.2-.93.44-1.86.72-2.77.22-.72.5-1.42.75-2.13.29-.84-.64,1.35-.04.1.18-.38.35-.76.54-1.13.86-1.71,1.88-3.32,2.96-4.9,1.91-2.8,4-5.49,5.61-8.49,3.76-6.99,5.17-15.14,5.08-23.02-.11-9.12-2.91-17.84-9.41-24.41-2.21-2.23-6.3-2.38-8.49,0s-2.36,6.1,0,8.49h0Z"/>
    </g>
    <g>
      <path class="cls-10" d="m591.14,165.88c-14.06,1.88-41.11-2.57-43.76-14.46-1.31-5.87,4.07-12.49,8.82-15.68,7.39-4.97,17.79-4.67,26.46.98"/>
      <path class="cls-12" d="m591.14,159.88c-5.28.69-10.69.49-15.96-.14-.26-.03-1.61-.21-.45-.05s-.04-.01-.3-.05c-.78-.12-1.56-.25-2.34-.39-1.44-.26-2.88-.56-4.31-.92s-2.77-.73-4.12-1.17c-.61-.2-1.22-.41-1.82-.63-.32-.12-.64-.24-.95-.36-.13-.05-.27-.11-.4-.16-.68-.26,1.4.62.51.22-1.16-.52-2.3-1.07-3.4-1.71-.48-.28-.95-.57-1.41-.88-.24-.16-.47-.34-.71-.5-.63-.42,1.24,1.06.26.2-.38-.33-.76-.66-1.11-1.02-.18-.19-.37-.38-.54-.57-.07-.08-.14-.17-.22-.25-.67-.72.5.55.46.62.04-.08-.68-1.01-.76-1.15-.12-.21-.21-.44-.34-.64-.11-.19-.31-.72.14.34s.16.4.08.14c-.06-.2-.13-.39-.18-.59-.07-.24-.24-1.32-.11-.28.14,1.1.02-.31.02-.58,0-.17.03-.35.03-.52,0-.74-.29,1.43-.05.38.08-.35.16-.69.26-1.04.06-.21.59-1.57.19-.65s.2-.38.33-.63c.24-.45.49-.88.76-1.31.21-.32.43-.63.64-.95.58-.85-.76.9.12-.15.61-.73,1.26-1.42,1.95-2.07.27-.25.54-.5.82-.74.15-.13,1.31-1.07.5-.43-.77.6.27-.18.5-.33.42-.28.84-.54,1.28-.79s.88-.46,1.33-.69c.89-.45-1.15.43.12-.05.94-.35,1.9-.63,2.88-.85.18-.04.37-.08.56-.12.14-.03,1.39-.2.33-.08s.68-.05.91-.07c.97-.06,1.94-.06,2.9,0,.52.03,1.05.13,1.57.14-.14,0-1.46-.24-.42-.04.26.05.52.09.79.15,1.06.22,2.11.5,3.13.84.46.15,1.08.53,1.55.57-.02,0-1.07-.49-.47-.19.25.12.51.23.76.36,1.1.53,2.15,1.14,3.18,1.8,2.65,1.7,6.74.63,8.21-2.15,1.57-2.97.67-6.4-2.15-8.21-7.77-4.97-18.1-7.02-26.92-3.72s-16.76,11.23-17.54,20.85c-.57,7.07,4.48,12.78,10.2,16.14s12.07,5.1,18.41,6.17c6.99,1.18,14.25,1.82,21.31.89,1.66-.22,3.01-.53,4.24-1.76,1.04-1.04,1.82-2.75,1.76-4.24-.13-2.9-2.67-6.43-6-6h0Z"/>
    </g>
    <g>
      <path class="cls-10" d="m581.91,196.02c-10.23-2.89-22.18.6-28.65,9.03"/>
      <path class="cls-12" d="m583.5,190.24c-12.13-3.33-26.6.46-34.49,10.57-1.02,1.31-1.76,2.51-1.76,4.24,0,1.47.65,3.23,1.76,4.24,2.15,1.98,6.42,2.64,8.49,0,.78-1,1.62-1.94,2.54-2.8.47-.45,1.04-.83,1.49-1.3-.34.35-.97.72-.21.18.24-.18.49-.35.74-.51,1.05-.7,2.15-1.33,3.28-1.87.23-.11.63-.2.82-.38-.31.28-1.21.49-.26.12.62-.24,1.25-.46,1.88-.65,1.15-.36,2.33-.64,3.52-.85.6-.1,1.33.07-.16,0,.29.01.61-.07.9-.1.6-.05,1.21-.09,1.81-.11,1.27-.03,2.53.05,3.8.16s-1.45-.26-.16-.02c.24.04.48.08.71.13.71.14,1.42.31,2.11.5,3.02.83,6.66-1.03,7.38-4.19s-.95-6.49-4.19-7.38h0Z"/>
    </g>
    <ellipse class="cls-5" cx="360.95" cy="252.69" rx="19.11" ry="25.97"/>
  </g>
  <text class="cls-8" transform="translate(395.54 748.36) scale(.81 1)"><tspan x="0" y="0">In </tspan><tspan class="cls-13" x="150.67" y="0">Y</tspan><tspan class="cls-11" x="212.1" y="0">ou</tspan><tspan class="cls-9" x="360.79" y="0">r</tspan><tspan x="414.77" y="0" xml:space="preserve"> Head </tspan></text>
  <text class="cls-7" transform="translate(35.43 747.09) scale(1.43 1)"><tspan x="0" y="0">NED </tspan></text>
</svg>